<?xml version="1.0" encoding="iso-8859-1"?>
<!-- Generator: Adobe Illustrator 19.0.0, SVG Export Plug-In . SVG Version: 6.00 Build 0)  -->
<svg version="1.1" id="Layer_1" xmlns="http://www.w3.org/2000/svg" xmlns:xlink="http://www.w3.org/1999/xlink" x="0px" y="0px"
	 viewBox="0 0 496 496" style="enable-background:new 0 0 496 496;" xml:space="preserve">
<rect x="104" y="160" style="fill:#2F423F;" width="288" height="136"/>
<path style="fill:#4C5254;" d="M496,401.6c0,44.8-35.2,46.4-80.8,46.4H80.8C35.2,448,0,447.2,0,401.6V312c0-44.8,35.2-80,80.8-80
	H416c44.8,0,80,34.4,80,80V401.6z"/>
<path style="fill:#2F423F;" d="M80,232h335.2c45.6,0,80.8,34.4,80.8,80v89.6c0,44.8-35.2,46.4-80.8,46.4"/>
<path style="fill:#32BA7C;" d="M384,445.6c0,10.4-8,18.4-18.4,18.4H138.4c-10.4,0-18.4-8-18.4-18.4v-3.2c0-10.4,8-18.4,18.4-18.4
	h227.2c10.4,0,18.4,8,18.4,18.4L384,445.6L384,445.6z"/>
<path style="fill:#0AA06E;" d="M384,445.6L384,445.6c0,10.4-8.8,18.4-18.4,18.4H138.4c-12.8,0-18.4-8-18.4-18.4l0,0"/>
<circle style="fill:#32BA7C;" cx="433.6" cy="373.6" r="20.8"/>
<path style="fill:#0AA06E;" d="M448.8,358.4c8,8,8,21.6,0,29.6s-21.6,8-29.6,0"/>
<g>
	<path style="fill:#2F423F;" d="M117.6,368c0,4.8-4,8-8,8H52c-4.8,0-8-3.2-8-8l0,0c0-4.8,4-8,8-8h57.6
		C113.6,360,117.6,363.2,117.6,368L117.6,368z"/>
	<path style="fill:#2F423F;" d="M117.6,336c0,4.8-4,8-8,8H52c-4.8,0-8-3.2-8-8l0,0c0-4.8,4-8,8-8h57.6
		C113.6,328,117.6,331.2,117.6,336L117.6,336z"/>
	<path style="fill:#2F423F;" d="M117.6,400c0,4.8-4,8-8,8H52c-4.8,0-8-3.2-8-8l0,0c0-4.8,4-8,8-8h57.6
		C113.6,392,117.6,395.2,117.6,400L117.6,400z"/>
</g>
<path style="fill:#FFDE55;" d="M145.6,32c-8,0-17.6,8-17.6,16v214.4c0,8,8.8,17.6,17.6,17.6h205.6c8,0,17.6-8.8,17.6-17.6v-168
	L304,32H145.6z"/>
<polygon style="fill:#FFC114;" points="368,144.8 368,94.4 334.4,63.2 310.4,88 "/>
<path style="fill:#FFF3C0;" d="M304,76.8V32l63.2,61.6h-45.6C312.8,92.8,304,84.8,304,76.8z"/>
<g>
	<path style="fill:#FFC114;" d="M328,132c0,2.4-1.6,4-4,4H172c-2.4,0-4-1.6-4-4l0,0c0-2.4,1.6-4,4-4h152
		C326.4,128,328,129.6,328,132L328,132z"/>
	<path style="fill:#FFC114;" d="M328,180c0,2.4-1.6,4-4,4H172c-2.4,0-4-1.6-4-4l0,0c0-2.4,1.6-4,4-4h152
		C326.4,176,328,177.6,328,180L328,180z"/>
	<path style="fill:#FFC114;" d="M328,228c0,2.4-1.6,4-4,4H172c-2.4,0-4-1.6-4-4l0,0c0-2.4,1.6-4,4-4h152
		C326.4,224,328,225.6,328,228L328,228z"/>
</g>
<rect x="104" y="248" style="fill:#2F423F;" width="288" height="40"/>
<g>
</g>
<g>
</g>
<g>
</g>
<g>
</g>
<g>
</g>
<g>
</g>
<g>
</g>
<g>
</g>
<g>
</g>
<g>
</g>
<g>
</g>
<g>
</g>
<g>
</g>
<g>
</g>
<g>
</g>
</svg>
